<svg xmlns="http://www.w3.org/2000/svg" xmlns:xlink="http://www.w3.org/1999/xlink" version="1.1" id="Layer_1" x="0px" y="0px" width="100%" viewBox="0 0 512 512" enable-background="new 0 0 512 512" xml:space="preserve"><path fill="#000000" opacity="1.000000" stroke="none" d=" M338.000000,513.000000 C225.360703,513.000000 113.221397,513.000000 1.041047,513.000000 C1.041047,342.402344 1.041047,171.804672 1.041047,1.103501 C171.555969,1.103501 342.112030,1.103501 512.834045,1.103501 C512.834045,171.666534 512.834045,342.333252 512.834045,513.000000 C454.804657,513.000000 396.652313,513.000000 338.000000,513.000000 M247.504974,32.999989 C245.266266,33.333664 242.985687,33.495258 240.795502,34.028290 C223.587036,38.216393 209.222351,46.623981 198.850708,61.458893 C186.886566,78.571632 182.736038,97.298187 185.998932,117.795677 C190.122879,143.702103 205.310669,161.042679 228.601639,171.601959 C232.197510,173.232193 233.061035,174.615829 233.055923,178.093567 C232.976074,232.416962 232.981186,286.740479 233.014282,341.063995 C233.021790,353.391541 232.752777,365.630432 230.095978,377.796539 C226.665329,393.506317 218.959961,406.798157 206.591385,416.533264 C189.503082,429.983215 169.617111,434.974609 147.969849,430.965973 C121.462227,426.057281 103.111984,410.991211 94.198792,385.497467 C91.572449,377.985504 90.925896,369.698761 90.012955,361.693970 C89.125343,353.911255 89.059410,346.034882 88.621796,338.000000 C96.767654,338.000000 103.956413,338.436188 111.048561,337.798340 C114.147461,337.519623 117.745949,335.690247 119.867912,333.404785 C122.692032,330.363129 121.671478,326.304901 119.407791,322.917297 C98.540894,291.689941 77.655632,260.474915 56.762184,229.265320 C54.058887,225.227280 49.781033,223.674347 45.405903,225.235107 C41.217613,226.729172 40.955147,230.206161 40.961300,234.022537 C41.024437,273.182007 40.995369,312.341614 41.002747,351.501190 C41.005039,363.651917 41.132549,375.683838 43.843307,387.744873 C50.606991,417.838593 65.498894,442.514801 91.090302,459.904510 C119.098480,478.936432 150.160843,484.882233 183.487961,479.003693 C211.808548,474.008270 235.563187,461.083130 253.906509,438.627625 C271.901855,416.598206 280.619812,391.184479 280.916534,362.982880 C281.270630,329.326019 281.000000,295.662628 281.000000,262.002045 C281.000000,233.673843 280.956055,205.345398 281.111572,177.018051 C281.120667,175.356384 282.369293,172.679611 283.668732,172.209335 C293.664062,168.591797 302.107544,162.822449 309.366760,155.146896 C328.509888,134.905853 332.970062,111.053589 326.208405,84.742683 C322.460358,70.158409 314.890900,57.738777 302.826874,48.309322 C286.766327,35.756088 268.773865,30.212971 247.504974,32.999989 M409.035645,396.599274 C408.750397,397.167816 408.574799,397.835358 408.163971,398.290558 C396.494232,411.221191 382.095184,419.586365 365.044739,422.885223 C350.811462,425.639008 336.856293,423.888672 323.599152,417.885406 C311.152740,412.249237 301.119690,403.668060 293.628784,392.088379 C293.095276,392.531464 292.505859,392.769989 292.428619,393.121185 C288.753204,409.839233 281.466675,424.899567 271.770660,438.914581 C271.229279,439.697174 271.815643,442.231689 272.674347,442.858368 C279.965515,448.179443 287.328217,453.421082 294.887238,458.352692 C308.861786,467.469849 324.707031,471.533569 340.977875,472.722137 C351.864380,473.517395 363.071838,472.499207 373.911560,470.833984 C398.722015,467.022461 420.137604,455.536774 437.966217,438.167267 C445.791443,430.543610 452.420593,421.366913 458.180176,412.024506 C466.894806,397.888947 472.514679,382.025513 472.756653,365.473755 C473.448456,318.153595 473.017731,270.816711 472.923737,223.486618 C472.920563,221.889526 472.193207,219.920242 471.116333,218.764893 C466.908356,214.250305 460.729279,215.173401 457.040771,220.704712 C452.663635,227.268707 448.390350,233.901855 444.020660,240.470856 C427.416809,265.431763 410.824066,290.400299 394.135254,315.304382 C392.025085,318.453369 392.083649,321.875671 393.480194,324.687592 C394.887756,327.521667 397.578857,329.350891 401.577148,329.126678 C409.312286,328.692932 417.088959,329.000000 425.771179,329.000000 C424.813477,342.147308 424.557709,354.697693 422.801636,367.034515 C421.273529,377.770020 416.841492,387.699677 409.035645,396.599274 z"/><path fill="#FFFFFF" opacity="1.000000" stroke="none" d=" M247.961044,32.999878 C268.773865,30.212971 286.766327,35.756088 302.826874,48.309322 C314.890900,57.738777 322.460358,70.158409 326.208405,84.742683 C332.970062,111.053589 328.509888,134.905853 309.366760,155.146896 C302.107544,162.822449 293.664062,168.591797 283.668732,172.209335 C282.369293,172.679611 281.120667,175.356384 281.111572,177.018051 C280.956055,205.345398 281.000000,233.673843 281.000000,262.002045 C281.000000,295.662628 281.270630,329.326019 280.916534,362.982880 C280.619812,391.184479 271.901855,416.598206 253.906509,438.627625 C235.563187,461.083130 211.808548,474.008270 183.487961,479.003693 C150.160843,484.882233 119.098480,478.936432 91.090302,459.904510 C65.498894,442.514801 50.606991,417.838593 43.843307,387.744873 C41.132549,375.683838 41.005039,363.651917 41.002747,351.501190 C40.995369,312.341614 41.024437,273.182007 40.961300,234.022537 C40.955147,230.206161 41.217613,226.729172 45.405903,225.235107 C49.781033,223.674347 54.058887,225.227280 56.762184,229.265320 C77.655632,260.474915 98.540894,291.689941 119.407791,322.917297 C121.671478,326.304901 122.692032,330.363129 119.867912,333.404785 C117.745949,335.690247 114.147461,337.519623 111.048561,337.798340 C103.956413,338.436188 96.767654,338.000000 88.621796,338.000000 C89.059410,346.034882 89.125343,353.911255 90.012955,361.693970 C90.925896,369.698761 91.572449,377.985504 94.198792,385.497467 C103.111984,410.991211 121.462227,426.057281 147.969849,430.965973 C169.617111,434.974609 189.503082,429.983215 206.591385,416.533264 C218.959961,406.798157 226.665329,393.506317 230.095978,377.796539 C232.752777,365.630432 233.021790,353.391541 233.014282,341.063995 C232.981186,286.740479 232.976074,232.416962 233.055923,178.093567 C233.061035,174.615829 232.197510,173.232193 228.601639,171.601959 C205.310669,161.042679 190.122879,143.702103 185.998932,117.795677 C182.736038,97.298187 186.886566,78.571632 198.850708,61.458893 C209.222351,46.623981 223.587036,38.216393 240.795502,34.028290 C242.985687,33.495258 245.266266,33.333664 247.961044,32.999878 M278.117584,95.623329 C273.455902,80.990730 252.678406,76.059753 240.662170,87.918610 C233.455292,95.031075 231.614853,106.423378 236.687607,116.177933 C241.212021,124.878067 252.414932,130.010635 262.069519,127.947800 C269.272186,126.408844 278.609711,117.906029 278.920044,112.049011 C279.199310,106.778419 278.808228,101.472290 278.117584,95.623329 z"/><path fill="#FFFFFF" opacity="1.000000" stroke="none" d=" M409.257385,396.308685 C416.841492,387.699677 421.273529,377.770020 422.801636,367.034515 C424.557709,354.697693 424.813477,342.147308 425.771179,329.000000 C417.088959,329.000000 409.312286,328.692932 401.577148,329.126678 C397.578857,329.350891 394.887756,327.521667 393.480194,324.687592 C392.083649,321.875671 392.025085,318.453369 394.135254,315.304382 C410.824066,290.400299 427.416809,265.431763 444.020660,240.470856 C448.390350,233.901855 452.663635,227.268707 457.040771,220.704712 C460.729279,215.173401 466.908356,214.250305 471.116333,218.764893 C472.193207,219.920242 472.920563,221.889526 472.923737,223.486618 C473.017731,270.816711 473.448456,318.153595 472.756653,365.473755 C472.514679,382.025513 466.894806,397.888947 458.180176,412.024506 C452.420593,421.366913 445.791443,430.543610 437.966217,438.167267 C420.137604,455.536774 398.722015,467.022461 373.911560,470.833984 C363.071838,472.499207 351.864380,473.517395 340.977875,472.722137 C324.707031,471.533569 308.861786,467.469849 294.887238,458.352692 C287.328217,453.421082 279.965515,448.179443 272.674347,442.858368 C271.815643,442.231689 271.229279,439.697174 271.770660,438.914581 C281.466675,424.899567 288.753204,409.839233 292.428619,393.121185 C292.505859,392.769989 293.095276,392.531464 293.628784,392.088379 C301.119690,403.668060 311.152740,412.249237 323.599152,417.885406 C336.856293,423.888672 350.811462,425.639008 365.044739,422.885223 C382.095184,419.586365 396.494232,411.221191 408.163971,398.290558 C408.574799,397.835358 408.750397,397.167816 409.257385,396.308685 z"/><path fill="#000000" opacity="1.000000" stroke="none" d=" M278.415222,95.902588 C278.808228,101.472290 279.199310,106.778419 278.920044,112.049011 C278.609711,117.906029 269.272186,126.408844 262.069519,127.947800 C252.414932,130.010635 241.212021,124.878067 236.687607,116.177933 C231.614853,106.423378 233.455292,95.031075 240.662170,87.918610 C252.678406,76.059753 273.455902,80.990730 278.415222,95.902588 z"/></svg>