<svg xmlns="http://www.w3.org/2000/svg" width="680" height="200" viewBox="0 0 680 200" font-family="-apple-system,Segoe UI,Helvetica,Arial,sans-serif" role="img" aria-label="HookStack evolution — 105 hooks since 2026-05-29">
  <rect width="680" height="200" fill="#0a0a0a"/>
  <line x1="40" y1="164.0" x2="660" y2="164.0" stroke="#27272a" stroke-width="1"/>
  <line x1="40" y1="128.3" x2="660" y2="128.3" stroke="#27272a" stroke-width="1"/>
  <line x1="40" y1="91.3" x2="660" y2="91.3" stroke="#27272a" stroke-width="1"/>
  <line x1="40" y1="55.7" x2="660" y2="55.7" stroke="#27272a" stroke-width="1"/>
  <line x1="40" y1="20.0" x2="660" y2="20.0" stroke="#27272a" stroke-width="1"/>
  <text x="34" y="168.0" fill="#52525b" font-size="10" text-anchor="end">0</text>
  <text x="34" y="132.3" fill="#52525b" font-size="10" text-anchor="end">26</text>
  <text x="34" y="95.3" fill="#52525b" font-size="10" text-anchor="end">53</text>
  <text x="34" y="59.7" fill="#52525b" font-size="10" text-anchor="end">79</text>
  <text x="34" y="24.0" fill="#52525b" font-size="10" text-anchor="end">105</text>
  <path d="M40.0,164.0 L40.0,142.1 L59.4,140.7 L78.8,105.0 L98.1,79.0 L117.5,77.6 L136.9,77.6 L156.3,73.5 L175.6,73.5 L195.0,73.5 L214.4,69.4 L233.8,63.9 L253.1,63.9 L272.5,51.5 L291.9,50.2 L311.3,43.3 L330.6,25.5 L350.0,25.5 L369.4,25.5 L388.8,25.5 L408.1,25.5 L427.5,25.5 L446.9,25.5 L466.3,24.1 L485.6,24.1 L505.0,24.1 L524.4,24.1 L543.8,24.1 L563.1,24.1 L582.5,24.1 L601.9,24.1 L621.3,24.1 L640.6,24.1 L660.0,20.0 L660.0,164.0 Z" fill="white" fill-opacity="0.07"/>
  <polyline points="40.0,142.1 59.4,140.7 78.8,105.0 98.1,79.0 117.5,77.6 136.9,77.6 156.3,73.5 175.6,73.5 195.0,73.5 214.4,69.4 233.8,63.9 253.1,63.9 272.5,51.5 291.9,50.2 311.3,43.3 330.6,25.5 350.0,25.5 369.4,25.5 388.8,25.5 408.1,25.5 427.5,25.5 446.9,25.5 466.3,24.1 485.6,24.1 505.0,24.1 524.4,24.1 543.8,24.1 563.1,24.1 582.5,24.1 601.9,24.1 621.3,24.1 640.6,24.1 660.0,20.0" fill="none" stroke="white" stroke-width="2" stroke-linejoin="round" stroke-linecap="round"/>
  <circle cx="40.0" cy="142.1" r="3" fill="white"/>
  <circle cx="59.4" cy="140.7" r="3" fill="white"/>
  <circle cx="78.8" cy="105.0" r="3" fill="white"/>
  <circle cx="98.1" cy="79.0" r="3" fill="white"/>
  <circle cx="117.5" cy="77.6" r="3" fill="white"/>
  <circle cx="156.3" cy="73.5" r="3" fill="white"/>
  <circle cx="214.4" cy="69.4" r="3" fill="white"/>
  <circle cx="233.8" cy="63.9" r="3" fill="white"/>
  <circle cx="272.5" cy="51.5" r="3" fill="white"/>
  <circle cx="291.9" cy="50.2" r="3" fill="white"/>
  <circle cx="311.3" cy="43.3" r="3" fill="white"/>
  <circle cx="330.6" cy="25.5" r="3" fill="white"/>
  <circle cx="466.3" cy="24.1" r="3" fill="white"/>
  <circle cx="660.0" cy="20.0" r="3" fill="white"/>
  <text x="40.0" y="180" fill="#52525b" font-size="10" text-anchor="middle">May 29</text>
  <text x="195.0" y="180" fill="#52525b" font-size="10" text-anchor="middle">Jun 6</text>
  <text x="350.0" y="180" fill="#52525b" font-size="10" text-anchor="middle">Jun 14</text>
  <text x="505.0" y="180" fill="#52525b" font-size="10" text-anchor="middle">Jun 22</text>
  <text x="660.0" y="180" fill="#52525b" font-size="10" text-anchor="middle">Jun 30</text>
</svg>
