<svg xmlns="http://www.w3.org/2000/svg" width="680" height="200" viewBox="0 0 680 200" font-family="-apple-system,Segoe UI,Helvetica,Arial,sans-serif" role="img" aria-label="HookStack evolution — 102 hooks since 2026-05-29">
  <rect width="680" height="200" fill="#0a0a0a"/>
  <line x1="40" y1="164.0" x2="660" y2="164.0" stroke="#27272a" stroke-width="1"/>
  <line x1="40" y1="127.3" x2="660" y2="127.3" stroke="#27272a" stroke-width="1"/>
  <line x1="40" y1="92.0" x2="660" y2="92.0" stroke="#27272a" stroke-width="1"/>
  <line x1="40" y1="55.3" x2="660" y2="55.3" stroke="#27272a" stroke-width="1"/>
  <line x1="40" y1="20.0" x2="660" y2="20.0" stroke="#27272a" stroke-width="1"/>
  <text x="34" y="168.0" fill="#52525b" font-size="10" text-anchor="end">0</text>
  <text x="34" y="131.3" fill="#52525b" font-size="10" text-anchor="end">26</text>
  <text x="34" y="96.0" fill="#52525b" font-size="10" text-anchor="end">51</text>
  <text x="34" y="59.3" fill="#52525b" font-size="10" text-anchor="end">77</text>
  <text x="34" y="24.0" fill="#52525b" font-size="10" text-anchor="end">102</text>
  <path d="M40.0,164.0 L40.0,141.4 L68.2,140.0 L96.4,103.3 L124.5,76.5 L152.7,75.1 L180.9,75.1 L209.1,70.8 L237.3,70.8 L265.5,70.8 L293.6,66.6 L321.8,60.9 L350.0,60.9 L378.2,48.2 L406.4,46.8 L434.5,39.8 L462.7,21.4 L490.9,21.4 L519.1,21.4 L547.3,21.4 L575.5,21.4 L603.6,21.4 L631.8,21.4 L660.0,20.0 L660.0,164.0 Z" fill="white" fill-opacity="0.07"/>
  <polyline points="40.0,141.4 68.2,140.0 96.4,103.3 124.5,76.5 152.7,75.1 180.9,75.1 209.1,70.8 237.3,70.8 265.5,70.8 293.6,66.6 321.8,60.9 350.0,60.9 378.2,48.2 406.4,46.8 434.5,39.8 462.7,21.4 490.9,21.4 519.1,21.4 547.3,21.4 575.5,21.4 603.6,21.4 631.8,21.4 660.0,20.0" fill="none" stroke="white" stroke-width="2" stroke-linejoin="round" stroke-linecap="round"/>
  <circle cx="40.0" cy="141.4" r="3" fill="white"/>
  <circle cx="68.2" cy="140.0" r="3" fill="white"/>
  <circle cx="96.4" cy="103.3" r="3" fill="white"/>
  <circle cx="124.5" cy="76.5" r="3" fill="white"/>
  <circle cx="152.7" cy="75.1" r="3" fill="white"/>
  <circle cx="209.1" cy="70.8" r="3" fill="white"/>
  <circle cx="293.6" cy="66.6" r="3" fill="white"/>
  <circle cx="321.8" cy="60.9" r="3" fill="white"/>
  <circle cx="378.2" cy="48.2" r="3" fill="white"/>
  <circle cx="406.4" cy="46.8" r="3" fill="white"/>
  <circle cx="434.5" cy="39.8" r="3" fill="white"/>
  <circle cx="462.7" cy="21.4" r="3" fill="white"/>
  <circle cx="660.0" cy="20.0" r="3" fill="white"/>
  <text x="40.0" y="180" fill="#52525b" font-size="10" text-anchor="middle">May 29</text>
  <text x="180.9" y="180" fill="#52525b" font-size="10" text-anchor="middle">Jun 3</text>
  <text x="321.8" y="180" fill="#52525b" font-size="10" text-anchor="middle">Jun 8</text>
  <text x="462.7" y="180" fill="#52525b" font-size="10" text-anchor="middle">Jun 13</text>
  <text x="603.6" y="180" fill="#52525b" font-size="10" text-anchor="middle">Jun 18</text>
  <text x="660.0" y="180" fill="#52525b" font-size="10" text-anchor="middle">Jun 20</text>
</svg>
