<svg xmlns="http://www.w3.org/2000/svg" width="680" height="200" viewBox="0 0 680 200" font-family="-apple-system,Segoe UI,Helvetica,Arial,sans-serif" role="img" aria-label="HookStack evolution — 100 hooks since 2026-05-29">
  <rect width="680" height="200" fill="#0a0a0a"/>
  <line x1="40" y1="164.0" x2="660" y2="164.0" stroke="#27272a" stroke-width="1"/>
  <line x1="40" y1="128.0" x2="660" y2="128.0" stroke="#27272a" stroke-width="1"/>
  <line x1="40" y1="92.0" x2="660" y2="92.0" stroke="#27272a" stroke-width="1"/>
  <line x1="40" y1="56.0" x2="660" y2="56.0" stroke="#27272a" stroke-width="1"/>
  <line x1="40" y1="20.0" x2="660" y2="20.0" stroke="#27272a" stroke-width="1"/>
  <text x="34" y="168.0" fill="#52525b" font-size="10" text-anchor="end">0</text>
  <text x="34" y="132.0" fill="#52525b" font-size="10" text-anchor="end">25</text>
  <text x="34" y="96.0" fill="#52525b" font-size="10" text-anchor="end">50</text>
  <text x="34" y="60.0" fill="#52525b" font-size="10" text-anchor="end">75</text>
  <text x="34" y="24.0" fill="#52525b" font-size="10" text-anchor="end">100</text>
  <path d="M40.0,164.0 L40.0,141.0 L81.3,139.5 L122.7,102.1 L164.0,74.7 L205.3,73.3 L246.7,73.3 L288.0,69.0 L329.3,69.0 L370.7,69.0 L412.0,64.6 L453.3,58.9 L494.7,58.9 L536.0,45.9 L577.3,44.5 L618.7,37.3 L660.0,20.0 L660.0,164.0 Z" fill="white" fill-opacity="0.07"/>
  <polyline points="40.0,141.0 81.3,139.5 122.7,102.1 164.0,74.7 205.3,73.3 246.7,73.3 288.0,69.0 329.3,69.0 370.7,69.0 412.0,64.6 453.3,58.9 494.7,58.9 536.0,45.9 577.3,44.5 618.7,37.3 660.0,20.0" fill="none" stroke="white" stroke-width="2" stroke-linejoin="round" stroke-linecap="round"/>
  <circle cx="40.0" cy="141.0" r="3" fill="white"/>
  <circle cx="81.3" cy="139.5" r="3" fill="white"/>
  <circle cx="122.7" cy="102.1" r="3" fill="white"/>
  <circle cx="164.0" cy="74.7" r="3" fill="white"/>
  <circle cx="205.3" cy="73.3" r="3" fill="white"/>
  <circle cx="288.0" cy="69.0" r="3" fill="white"/>
  <circle cx="412.0" cy="64.6" r="3" fill="white"/>
  <circle cx="453.3" cy="58.9" r="3" fill="white"/>
  <circle cx="536.0" cy="45.9" r="3" fill="white"/>
  <circle cx="577.3" cy="44.5" r="3" fill="white"/>
  <circle cx="618.7" cy="37.3" r="3" fill="white"/>
  <circle cx="660.0" cy="20.0" r="3" fill="white"/>
  <text x="40.0" y="180" fill="#52525b" font-size="10" text-anchor="middle">May 29</text>
  <text x="164.0" y="180" fill="#52525b" font-size="10" text-anchor="middle">Jun 1</text>
  <text x="288.0" y="180" fill="#52525b" font-size="10" text-anchor="middle">Jun 4</text>
  <text x="412.0" y="180" fill="#52525b" font-size="10" text-anchor="middle">Jun 7</text>
  <text x="536.0" y="180" fill="#52525b" font-size="10" text-anchor="middle">Jun 10</text>
  <text x="660.0" y="180" fill="#52525b" font-size="10" text-anchor="middle">Jun 13</text>
</svg>
