<svg xmlns="http://www.w3.org/2000/svg" width="680" height="200" viewBox="0 0 680 200" font-family="-apple-system,Segoe UI,Helvetica,Arial,sans-serif" role="img" aria-label="HookStack evolution — 102 hooks since 2026-05-29">
  <rect width="680" height="200" fill="#0a0a0a"/>
  <line x1="40" y1="164.0" x2="660" y2="164.0" stroke="#27272a" stroke-width="1"/>
  <line x1="40" y1="127.3" x2="660" y2="127.3" stroke="#27272a" stroke-width="1"/>
  <line x1="40" y1="92.0" x2="660" y2="92.0" stroke="#27272a" stroke-width="1"/>
  <line x1="40" y1="55.3" x2="660" y2="55.3" stroke="#27272a" stroke-width="1"/>
  <line x1="40" y1="20.0" x2="660" y2="20.0" stroke="#27272a" stroke-width="1"/>
  <text x="34" y="168.0" fill="#52525b" font-size="10" text-anchor="end">0</text>
  <text x="34" y="131.3" fill="#52525b" font-size="10" text-anchor="end">26</text>
  <text x="34" y="96.0" fill="#52525b" font-size="10" text-anchor="end">51</text>
  <text x="34" y="59.3" fill="#52525b" font-size="10" text-anchor="end">77</text>
  <text x="34" y="24.0" fill="#52525b" font-size="10" text-anchor="end">102</text>
  <path d="M40.0,164.0 L40.0,141.4 L81.3,140.0 L122.7,100.5 L164.0,73.6 L205.3,72.2 L246.7,72.2 L288.0,68.0 L329.3,68.0 L370.7,68.0 L412.0,63.8 L453.3,58.1 L494.7,58.1 L536.0,45.4 L577.3,44.0 L618.7,36.9 L660.0,20.0 L660.0,164.0 Z" fill="white" fill-opacity="0.07"/>
  <polyline points="40.0,141.4 81.3,140.0 122.7,100.5 164.0,73.6 205.3,72.2 246.7,72.2 288.0,68.0 329.3,68.0 370.7,68.0 412.0,63.8 453.3,58.1 494.7,58.1 536.0,45.4 577.3,44.0 618.7,36.9 660.0,20.0" fill="none" stroke="white" stroke-width="2" stroke-linejoin="round" stroke-linecap="round"/>
  <circle cx="40.0" cy="141.4" r="3" fill="white"/>
  <circle cx="81.3" cy="140.0" r="3" fill="white"/>
  <circle cx="122.7" cy="100.5" r="3" fill="white"/>
  <circle cx="164.0" cy="73.6" r="3" fill="white"/>
  <circle cx="205.3" cy="72.2" r="3" fill="white"/>
  <circle cx="288.0" cy="68.0" r="3" fill="white"/>
  <circle cx="412.0" cy="63.8" r="3" fill="white"/>
  <circle cx="453.3" cy="58.1" r="3" fill="white"/>
  <circle cx="536.0" cy="45.4" r="3" fill="white"/>
  <circle cx="577.3" cy="44.0" r="3" fill="white"/>
  <circle cx="618.7" cy="36.9" r="3" fill="white"/>
  <circle cx="660.0" cy="20.0" r="3" fill="white"/>
  <text x="40.0" y="180" fill="#52525b" font-size="10" text-anchor="middle">May 29</text>
  <text x="164.0" y="180" fill="#52525b" font-size="10" text-anchor="middle">Jun 1</text>
  <text x="288.0" y="180" fill="#52525b" font-size="10" text-anchor="middle">Jun 4</text>
  <text x="412.0" y="180" fill="#52525b" font-size="10" text-anchor="middle">Jun 7</text>
  <text x="536.0" y="180" fill="#52525b" font-size="10" text-anchor="middle">Jun 10</text>
  <text x="660.0" y="180" fill="#52525b" font-size="10" text-anchor="middle">Jun 13</text>
</svg>
