<svg xmlns="http://www.w3.org/2000/svg" width="680" height="200" viewBox="0 0 680 200" font-family="-apple-system,Segoe UI,Helvetica,Arial,sans-serif" role="img" aria-label="HookStack evolution — 91 hooks since 2026-05-29">
  <rect width="680" height="200" fill="#0a0a0a"/>
  <line x1="40" y1="164.0" x2="660" y2="164.0" stroke="#27272a" stroke-width="1"/>
  <line x1="40" y1="127.6" x2="660" y2="127.6" stroke="#27272a" stroke-width="1"/>
  <line x1="40" y1="91.2" x2="660" y2="91.2" stroke="#27272a" stroke-width="1"/>
  <line x1="40" y1="56.4" x2="660" y2="56.4" stroke="#27272a" stroke-width="1"/>
  <line x1="40" y1="20.0" x2="660" y2="20.0" stroke="#27272a" stroke-width="1"/>
  <text x="34" y="168.0" fill="#52525b" font-size="10" text-anchor="end">0</text>
  <text x="34" y="131.6" fill="#52525b" font-size="10" text-anchor="end">23</text>
  <text x="34" y="95.2" fill="#52525b" font-size="10" text-anchor="end">46</text>
  <text x="34" y="60.4" fill="#52525b" font-size="10" text-anchor="end">68</text>
  <text x="34" y="24.0" fill="#52525b" font-size="10" text-anchor="end">91</text>
  <path d="M40.0,164.0 L40.0,138.7 L81.3,137.1 L122.7,92.8 L164.0,62.7 L205.3,61.1 L246.7,61.1 L288.0,56.4 L329.3,56.4 L370.7,56.4 L412.0,51.6 L453.3,45.3 L494.7,45.3 L536.0,31.1 L577.3,29.5 L618.7,21.6 L660.0,20.0 L660.0,164.0 Z" fill="white" fill-opacity="0.07"/>
  <polyline points="40.0,138.7 81.3,137.1 122.7,92.8 164.0,62.7 205.3,61.1 246.7,61.1 288.0,56.4 329.3,56.4 370.7,56.4 412.0,51.6 453.3,45.3 494.7,45.3 536.0,31.1 577.3,29.5 618.7,21.6 660.0,20.0" fill="none" stroke="white" stroke-width="2" stroke-linejoin="round" stroke-linecap="round"/>
  <circle cx="40.0" cy="138.7" r="3" fill="white"/>
  <circle cx="81.3" cy="137.1" r="3" fill="white"/>
  <circle cx="122.7" cy="92.8" r="3" fill="white"/>
  <circle cx="164.0" cy="62.7" r="3" fill="white"/>
  <circle cx="205.3" cy="61.1" r="3" fill="white"/>
  <circle cx="288.0" cy="56.4" r="3" fill="white"/>
  <circle cx="412.0" cy="51.6" r="3" fill="white"/>
  <circle cx="453.3" cy="45.3" r="3" fill="white"/>
  <circle cx="536.0" cy="31.1" r="3" fill="white"/>
  <circle cx="577.3" cy="29.5" r="3" fill="white"/>
  <circle cx="618.7" cy="21.6" r="3" fill="white"/>
  <circle cx="660.0" cy="20.0" r="3" fill="white"/>
  <text x="40.0" y="180" fill="#52525b" font-size="10" text-anchor="middle">May 29</text>
  <text x="164.0" y="180" fill="#52525b" font-size="10" text-anchor="middle">Jun 1</text>
  <text x="288.0" y="180" fill="#52525b" font-size="10" text-anchor="middle">Jun 4</text>
  <text x="412.0" y="180" fill="#52525b" font-size="10" text-anchor="middle">Jun 7</text>
  <text x="536.0" y="180" fill="#52525b" font-size="10" text-anchor="middle">Jun 10</text>
  <text x="660.0" y="180" fill="#52525b" font-size="10" text-anchor="middle">Jun 13</text>
</svg>
