<svg xmlns="http://www.w3.org/2000/svg" width="680" height="200" viewBox="0 0 680 200" font-family="-apple-system,Segoe UI,Helvetica,Arial,sans-serif" role="img" aria-label="HookStack evolution — 93 hooks since 2026-05-29">
  <rect width="680" height="200" fill="#0a0a0a"/>
  <line x1="40" y1="164.0" x2="660" y2="164.0" stroke="#27272a" stroke-width="1"/>
  <line x1="40" y1="128.4" x2="660" y2="128.4" stroke="#27272a" stroke-width="1"/>
  <line x1="40" y1="91.2" x2="660" y2="91.2" stroke="#27272a" stroke-width="1"/>
  <line x1="40" y1="55.6" x2="660" y2="55.6" stroke="#27272a" stroke-width="1"/>
  <line x1="40" y1="20.0" x2="660" y2="20.0" stroke="#27272a" stroke-width="1"/>
  <text x="34" y="168.0" fill="#52525b" font-size="10" text-anchor="end">0</text>
  <text x="34" y="132.4" fill="#52525b" font-size="10" text-anchor="end">23</text>
  <text x="34" y="95.2" fill="#52525b" font-size="10" text-anchor="end">47</text>
  <text x="34" y="59.6" fill="#52525b" font-size="10" text-anchor="end">70</text>
  <text x="34" y="24.0" fill="#52525b" font-size="10" text-anchor="end">93</text>
  <path d="M40.0,164.0 L40.0,139.2 L81.3,137.7 L122.7,94.3 L164.0,64.9 L205.3,63.4 L246.7,63.4 L288.0,58.7 L329.3,58.7 L370.7,58.7 L412.0,54.1 L453.3,47.9 L494.7,47.9 L536.0,33.9 L577.3,32.4 L618.7,24.6 L660.0,20.0 L660.0,164.0 Z" fill="white" fill-opacity="0.07"/>
  <polyline points="40.0,139.2 81.3,137.7 122.7,94.3 164.0,64.9 205.3,63.4 246.7,63.4 288.0,58.7 329.3,58.7 370.7,58.7 412.0,54.1 453.3,47.9 494.7,47.9 536.0,33.9 577.3,32.4 618.7,24.6 660.0,20.0" fill="none" stroke="white" stroke-width="2" stroke-linejoin="round" stroke-linecap="round"/>
  <circle cx="40.0" cy="139.2" r="3" fill="white"/>
  <circle cx="81.3" cy="137.7" r="3" fill="white"/>
  <circle cx="122.7" cy="94.3" r="3" fill="white"/>
  <circle cx="164.0" cy="64.9" r="3" fill="white"/>
  <circle cx="205.3" cy="63.4" r="3" fill="white"/>
  <circle cx="288.0" cy="58.7" r="3" fill="white"/>
  <circle cx="412.0" cy="54.1" r="3" fill="white"/>
  <circle cx="453.3" cy="47.9" r="3" fill="white"/>
  <circle cx="536.0" cy="33.9" r="3" fill="white"/>
  <circle cx="577.3" cy="32.4" r="3" fill="white"/>
  <circle cx="618.7" cy="24.6" r="3" fill="white"/>
  <circle cx="660.0" cy="20.0" r="3" fill="white"/>
  <text x="40.0" y="180" fill="#52525b" font-size="10" text-anchor="middle">May 29</text>
  <text x="164.0" y="180" fill="#52525b" font-size="10" text-anchor="middle">Jun 1</text>
  <text x="288.0" y="180" fill="#52525b" font-size="10" text-anchor="middle">Jun 4</text>
  <text x="412.0" y="180" fill="#52525b" font-size="10" text-anchor="middle">Jun 7</text>
  <text x="536.0" y="180" fill="#52525b" font-size="10" text-anchor="middle">Jun 10</text>
  <text x="660.0" y="180" fill="#52525b" font-size="10" text-anchor="middle">Jun 13</text>
</svg>
