<svg xmlns="http://www.w3.org/2000/svg" width="340" height="159" viewBox="0 0 340 159" font-family="-apple-system,Segoe UI,Helvetica,Arial,sans-serif" role="img" aria-label="HookStack — 91 hooks added since 2026-05-29">
  <rect width="340" height="159" fill="#0a0a0a"/>
  <text x="30" y="13" fill="#71717a" font-size="10">May</text>
  <text x="60" y="13" fill="#71717a" font-size="10">Jun</text>
  <text x="120" y="13" fill="#71717a" font-size="10">Jul</text>
  <text x="180" y="13" fill="#71717a" font-size="10">Aug</text>
  <text x="255" y="13" fill="#71717a" font-size="10">Sep</text>
  <text x="315" y="13" fill="#71717a" font-size="10">Oct</text>
  <text x="24" y="45" fill="#71717a" font-size="9" text-anchor="end">Mon</text><text x="24" y="75" fill="#71717a" font-size="9" text-anchor="end">Wed</text><text x="24" y="105" fill="#71717a" font-size="9" text-anchor="end">Fri</text>
  <rect x="30" y="20" width="12" height="12" rx="2.5" fill="#1c1c20"><title>2026-05-24 — no hooks</title></rect>
  <rect x="30" y="35" width="12" height="12" rx="2.5" fill="#1c1c20"><title>2026-05-25 — no hooks</title></rect>
  <rect x="30" y="50" width="12" height="12" rx="2.5" fill="#1c1c20"><title>2026-05-26 — no hooks</title></rect>
  <rect x="30" y="65" width="12" height="12" rx="2.5" fill="#1c1c20"><title>2026-05-27 — no hooks</title></rect>
  <rect x="30" y="80" width="12" height="12" rx="2.5" fill="#1c1c20"><title>2026-05-28 — no hooks</title></rect>
  <rect x="30" y="95" width="12" height="12" rx="2.5" fill="#f4f4f5"><title>2026-05-29 — 16 hooks added</title></rect>
  <rect x="30" y="110" width="12" height="12" rx="2.5" fill="#3f3f46"><title>2026-05-30 — 1 hook added</title></rect>
  <rect x="45" y="20" width="12" height="12" rx="2.5" fill="#f4f4f5"><title>2026-05-31 — 28 hooks added</title></rect>
  <rect x="45" y="35" width="12" height="12" rx="2.5" fill="#f4f4f5"><title>2026-06-01 — 19 hooks added</title></rect>
  <rect x="45" y="50" width="12" height="12" rx="2.5" fill="#3f3f46"><title>2026-06-02 — 1 hook added</title></rect>
  <rect x="45" y="65" width="12" height="12" rx="2.5" fill="#1c1c20"><title>2026-06-03 — no hooks</title></rect>
  <rect x="45" y="80" width="12" height="12" rx="2.5" fill="#71717a"><title>2026-06-04 — 3 hooks added</title></rect>
  <rect x="45" y="95" width="12" height="12" rx="2.5" fill="#1c1c20"><title>2026-06-05 — no hooks</title></rect>
  <rect x="45" y="110" width="12" height="12" rx="2.5" fill="#1c1c20"><title>2026-06-06 — no hooks</title></rect>
  <rect x="60" y="20" width="12" height="12" rx="2.5" fill="#71717a"><title>2026-06-07 — 3 hooks added</title></rect>
  <rect x="60" y="35" width="12" height="12" rx="2.5" fill="#71717a"><title>2026-06-08 — 4 hooks added</title></rect>
  <rect x="60" y="50" width="12" height="12" rx="2.5" fill="#1c1c20"><title>2026-06-09 — no hooks</title></rect>
  <rect x="60" y="65" width="12" height="12" rx="2.5" fill="#a1a1aa"><title>2026-06-10 — 9 hooks added</title></rect>
  <rect x="60" y="80" width="12" height="12" rx="2.5" fill="#3f3f46"><title>2026-06-11 — 1 hook added</title></rect>
  <rect x="60" y="95" width="12" height="12" rx="2.5" fill="#71717a"><title>2026-06-12 — 5 hooks added</title></rect>
  <rect x="60" y="110" width="12" height="12" rx="2.5" fill="#3f3f46"><title>2026-06-13 — 1 hook added</title></rect>
  <rect x="75" y="20" width="12" height="12" rx="2.5" fill="#1c1c20"><title>2026-06-14 — no hooks</title></rect>
  <rect x="75" y="35" width="12" height="12" rx="2.5" fill="#1c1c20"><title>2026-06-15 — no hooks</title></rect>
  <rect x="75" y="50" width="12" height="12" rx="2.5" fill="#1c1c20"><title>2026-06-16 — no hooks</title></rect>
  <rect x="75" y="65" width="12" height="12" rx="2.5" fill="#1c1c20"><title>2026-06-17 — no hooks</title></rect>
  <rect x="75" y="80" width="12" height="12" rx="2.5" fill="#1c1c20"><title>2026-06-18 — no hooks</title></rect>
  <rect x="75" y="95" width="12" height="12" rx="2.5" fill="#1c1c20"><title>2026-06-19 — no hooks</title></rect>
  <rect x="75" y="110" width="12" height="12" rx="2.5" fill="#1c1c20"><title>2026-06-20 — no hooks</title></rect>
  <rect x="90" y="20" width="12" height="12" rx="2.5" fill="#1c1c20"><title>2026-06-21 — no hooks</title></rect>
  <rect x="90" y="35" width="12" height="12" rx="2.5" fill="#1c1c20"><title>2026-06-22 — no hooks</title></rect>
  <rect x="90" y="50" width="12" height="12" rx="2.5" fill="#1c1c20"><title>2026-06-23 — no hooks</title></rect>
  <rect x="90" y="65" width="12" height="12" rx="2.5" fill="#1c1c20"><title>2026-06-24 — no hooks</title></rect>
  <rect x="90" y="80" width="12" height="12" rx="2.5" fill="#1c1c20"><title>2026-06-25 — no hooks</title></rect>
  <rect x="90" y="95" width="12" height="12" rx="2.5" fill="#1c1c20"><title>2026-06-26 — no hooks</title></rect>
  <rect x="90" y="110" width="12" height="12" rx="2.5" fill="#1c1c20"><title>2026-06-27 — no hooks</title></rect>
  <rect x="105" y="20" width="12" height="12" rx="2.5" fill="#1c1c20"><title>2026-06-28 — no hooks</title></rect>
  <rect x="105" y="35" width="12" height="12" rx="2.5" fill="#1c1c20"><title>2026-06-29 — no hooks</title></rect>
  <rect x="105" y="50" width="12" height="12" rx="2.5" fill="#1c1c20"><title>2026-06-30 — no hooks</title></rect>
  <rect x="105" y="65" width="12" height="12" rx="2.5" fill="#1c1c20"><title>2026-07-01 — no hooks</title></rect>
  <rect x="105" y="80" width="12" height="12" rx="2.5" fill="#1c1c20"><title>2026-07-02 — no hooks</title></rect>
  <rect x="105" y="95" width="12" height="12" rx="2.5" fill="#1c1c20"><title>2026-07-03 — no hooks</title></rect>
  <rect x="105" y="110" width="12" height="12" rx="2.5" fill="#1c1c20"><title>2026-07-04 — no hooks</title></rect>
  <rect x="120" y="20" width="12" height="12" rx="2.5" fill="#1c1c20"><title>2026-07-05 — no hooks</title></rect>
  <rect x="120" y="35" width="12" height="12" rx="2.5" fill="#1c1c20"><title>2026-07-06 — no hooks</title></rect>
  <rect x="120" y="50" width="12" height="12" rx="2.5" fill="#1c1c20"><title>2026-07-07 — no hooks</title></rect>
  <rect x="120" y="65" width="12" height="12" rx="2.5" fill="#1c1c20"><title>2026-07-08 — no hooks</title></rect>
  <rect x="120" y="80" width="12" height="12" rx="2.5" fill="#1c1c20"><title>2026-07-09 — no hooks</title></rect>
  <rect x="120" y="95" width="12" height="12" rx="2.5" fill="#1c1c20"><title>2026-07-10 — no hooks</title></rect>
  <rect x="120" y="110" width="12" height="12" rx="2.5" fill="#1c1c20"><title>2026-07-11 — no hooks</title></rect>
  <rect x="135" y="20" width="12" height="12" rx="2.5" fill="#1c1c20"><title>2026-07-12 — no hooks</title></rect>
  <rect x="135" y="35" width="12" height="12" rx="2.5" fill="#1c1c20"><title>2026-07-13 — no hooks</title></rect>
  <rect x="135" y="50" width="12" height="12" rx="2.5" fill="#1c1c20"><title>2026-07-14 — no hooks</title></rect>
  <rect x="135" y="65" width="12" height="12" rx="2.5" fill="#1c1c20"><title>2026-07-15 — no hooks</title></rect>
  <rect x="135" y="80" width="12" height="12" rx="2.5" fill="#1c1c20"><title>2026-07-16 — no hooks</title></rect>
  <rect x="135" y="95" width="12" height="12" rx="2.5" fill="#1c1c20"><title>2026-07-17 — no hooks</title></rect>
  <rect x="135" y="110" width="12" height="12" rx="2.5" fill="#1c1c20"><title>2026-07-18 — no hooks</title></rect>
  <rect x="150" y="20" width="12" height="12" rx="2.5" fill="#1c1c20"><title>2026-07-19 — no hooks</title></rect>
  <rect x="150" y="35" width="12" height="12" rx="2.5" fill="#1c1c20"><title>2026-07-20 — no hooks</title></rect>
  <rect x="150" y="50" width="12" height="12" rx="2.5" fill="#1c1c20"><title>2026-07-21 — no hooks</title></rect>
  <rect x="150" y="65" width="12" height="12" rx="2.5" fill="#1c1c20"><title>2026-07-22 — no hooks</title></rect>
  <rect x="150" y="80" width="12" height="12" rx="2.5" fill="#1c1c20"><title>2026-07-23 — no hooks</title></rect>
  <rect x="150" y="95" width="12" height="12" rx="2.5" fill="#1c1c20"><title>2026-07-24 — no hooks</title></rect>
  <rect x="150" y="110" width="12" height="12" rx="2.5" fill="#1c1c20"><title>2026-07-25 — no hooks</title></rect>
  <rect x="165" y="20" width="12" height="12" rx="2.5" fill="#1c1c20"><title>2026-07-26 — no hooks</title></rect>
  <rect x="165" y="35" width="12" height="12" rx="2.5" fill="#1c1c20"><title>2026-07-27 — no hooks</title></rect>
  <rect x="165" y="50" width="12" height="12" rx="2.5" fill="#1c1c20"><title>2026-07-28 — no hooks</title></rect>
  <rect x="165" y="65" width="12" height="12" rx="2.5" fill="#1c1c20"><title>2026-07-29 — no hooks</title></rect>
  <rect x="165" y="80" width="12" height="12" rx="2.5" fill="#1c1c20"><title>2026-07-30 — no hooks</title></rect>
  <rect x="165" y="95" width="12" height="12" rx="2.5" fill="#1c1c20"><title>2026-07-31 — no hooks</title></rect>
  <rect x="165" y="110" width="12" height="12" rx="2.5" fill="#1c1c20"><title>2026-08-01 — no hooks</title></rect>
  <rect x="180" y="20" width="12" height="12" rx="2.5" fill="#1c1c20"><title>2026-08-02 — no hooks</title></rect>
  <rect x="180" y="35" width="12" height="12" rx="2.5" fill="#1c1c20"><title>2026-08-03 — no hooks</title></rect>
  <rect x="180" y="50" width="12" height="12" rx="2.5" fill="#1c1c20"><title>2026-08-04 — no hooks</title></rect>
  <rect x="180" y="65" width="12" height="12" rx="2.5" fill="#1c1c20"><title>2026-08-05 — no hooks</title></rect>
  <rect x="180" y="80" width="12" height="12" rx="2.5" fill="#1c1c20"><title>2026-08-06 — no hooks</title></rect>
  <rect x="180" y="95" width="12" height="12" rx="2.5" fill="#1c1c20"><title>2026-08-07 — no hooks</title></rect>
  <rect x="180" y="110" width="12" height="12" rx="2.5" fill="#1c1c20"><title>2026-08-08 — no hooks</title></rect>
  <rect x="195" y="20" width="12" height="12" rx="2.5" fill="#1c1c20"><title>2026-08-09 — no hooks</title></rect>
  <rect x="195" y="35" width="12" height="12" rx="2.5" fill="#1c1c20"><title>2026-08-10 — no hooks</title></rect>
  <rect x="195" y="50" width="12" height="12" rx="2.5" fill="#1c1c20"><title>2026-08-11 — no hooks</title></rect>
  <rect x="195" y="65" width="12" height="12" rx="2.5" fill="#1c1c20"><title>2026-08-12 — no hooks</title></rect>
  <rect x="195" y="80" width="12" height="12" rx="2.5" fill="#1c1c20"><title>2026-08-13 — no hooks</title></rect>
  <rect x="195" y="95" width="12" height="12" rx="2.5" fill="#1c1c20"><title>2026-08-14 — no hooks</title></rect>
  <rect x="195" y="110" width="12" height="12" rx="2.5" fill="#1c1c20"><title>2026-08-15 — no hooks</title></rect>
  <rect x="210" y="20" width="12" height="12" rx="2.5" fill="#1c1c20"><title>2026-08-16 — no hooks</title></rect>
  <rect x="210" y="35" width="12" height="12" rx="2.5" fill="#1c1c20"><title>2026-08-17 — no hooks</title></rect>
  <rect x="210" y="50" width="12" height="12" rx="2.5" fill="#1c1c20"><title>2026-08-18 — no hooks</title></rect>
  <rect x="210" y="65" width="12" height="12" rx="2.5" fill="#1c1c20"><title>2026-08-19 — no hooks</title></rect>
  <rect x="210" y="80" width="12" height="12" rx="2.5" fill="#1c1c20"><title>2026-08-20 — no hooks</title></rect>
  <rect x="210" y="95" width="12" height="12" rx="2.5" fill="#1c1c20"><title>2026-08-21 — no hooks</title></rect>
  <rect x="210" y="110" width="12" height="12" rx="2.5" fill="#1c1c20"><title>2026-08-22 — no hooks</title></rect>
  <rect x="225" y="20" width="12" height="12" rx="2.5" fill="#1c1c20"><title>2026-08-23 — no hooks</title></rect>
  <rect x="225" y="35" width="12" height="12" rx="2.5" fill="#1c1c20"><title>2026-08-24 — no hooks</title></rect>
  <rect x="225" y="50" width="12" height="12" rx="2.5" fill="#1c1c20"><title>2026-08-25 — no hooks</title></rect>
  <rect x="225" y="65" width="12" height="12" rx="2.5" fill="#1c1c20"><title>2026-08-26 — no hooks</title></rect>
  <rect x="225" y="80" width="12" height="12" rx="2.5" fill="#1c1c20"><title>2026-08-27 — no hooks</title></rect>
  <rect x="225" y="95" width="12" height="12" rx="2.5" fill="#1c1c20"><title>2026-08-28 — no hooks</title></rect>
  <rect x="225" y="110" width="12" height="12" rx="2.5" fill="#1c1c20"><title>2026-08-29 — no hooks</title></rect>
  <rect x="240" y="20" width="12" height="12" rx="2.5" fill="#1c1c20"><title>2026-08-30 — no hooks</title></rect>
  <rect x="240" y="35" width="12" height="12" rx="2.5" fill="#1c1c20"><title>2026-08-31 — no hooks</title></rect>
  <rect x="240" y="50" width="12" height="12" rx="2.5" fill="#1c1c20"><title>2026-09-01 — no hooks</title></rect>
  <rect x="240" y="65" width="12" height="12" rx="2.5" fill="#1c1c20"><title>2026-09-02 — no hooks</title></rect>
  <rect x="240" y="80" width="12" height="12" rx="2.5" fill="#1c1c20"><title>2026-09-03 — no hooks</title></rect>
  <rect x="240" y="95" width="12" height="12" rx="2.5" fill="#1c1c20"><title>2026-09-04 — no hooks</title></rect>
  <rect x="240" y="110" width="12" height="12" rx="2.5" fill="#1c1c20"><title>2026-09-05 — no hooks</title></rect>
  <rect x="255" y="20" width="12" height="12" rx="2.5" fill="#1c1c20"><title>2026-09-06 — no hooks</title></rect>
  <rect x="255" y="35" width="12" height="12" rx="2.5" fill="#1c1c20"><title>2026-09-07 — no hooks</title></rect>
  <rect x="255" y="50" width="12" height="12" rx="2.5" fill="#1c1c20"><title>2026-09-08 — no hooks</title></rect>
  <rect x="255" y="65" width="12" height="12" rx="2.5" fill="#1c1c20"><title>2026-09-09 — no hooks</title></rect>
  <rect x="255" y="80" width="12" height="12" rx="2.5" fill="#1c1c20"><title>2026-09-10 — no hooks</title></rect>
  <rect x="255" y="95" width="12" height="12" rx="2.5" fill="#1c1c20"><title>2026-09-11 — no hooks</title></rect>
  <rect x="255" y="110" width="12" height="12" rx="2.5" fill="#1c1c20"><title>2026-09-12 — no hooks</title></rect>
  <rect x="270" y="20" width="12" height="12" rx="2.5" fill="#1c1c20"><title>2026-09-13 — no hooks</title></rect>
  <rect x="270" y="35" width="12" height="12" rx="2.5" fill="#1c1c20"><title>2026-09-14 — no hooks</title></rect>
  <rect x="270" y="50" width="12" height="12" rx="2.5" fill="#1c1c20"><title>2026-09-15 — no hooks</title></rect>
  <rect x="270" y="65" width="12" height="12" rx="2.5" fill="#1c1c20"><title>2026-09-16 — no hooks</title></rect>
  <rect x="270" y="80" width="12" height="12" rx="2.5" fill="#1c1c20"><title>2026-09-17 — no hooks</title></rect>
  <rect x="270" y="95" width="12" height="12" rx="2.5" fill="#1c1c20"><title>2026-09-18 — no hooks</title></rect>
  <rect x="270" y="110" width="12" height="12" rx="2.5" fill="#1c1c20"><title>2026-09-19 — no hooks</title></rect>
  <rect x="285" y="20" width="12" height="12" rx="2.5" fill="#1c1c20"><title>2026-09-20 — no hooks</title></rect>
  <rect x="285" y="35" width="12" height="12" rx="2.5" fill="#1c1c20"><title>2026-09-21 — no hooks</title></rect>
  <rect x="285" y="50" width="12" height="12" rx="2.5" fill="#1c1c20"><title>2026-09-22 — no hooks</title></rect>
  <rect x="285" y="65" width="12" height="12" rx="2.5" fill="#1c1c20"><title>2026-09-23 — no hooks</title></rect>
  <rect x="285" y="80" width="12" height="12" rx="2.5" fill="#1c1c20"><title>2026-09-24 — no hooks</title></rect>
  <rect x="285" y="95" width="12" height="12" rx="2.5" fill="#1c1c20"><title>2026-09-25 — no hooks</title></rect>
  <rect x="285" y="110" width="12" height="12" rx="2.5" fill="#1c1c20"><title>2026-09-26 — no hooks</title></rect>
  <rect x="300" y="20" width="12" height="12" rx="2.5" fill="#1c1c20"><title>2026-09-27 — no hooks</title></rect>
  <rect x="300" y="35" width="12" height="12" rx="2.5" fill="#1c1c20"><title>2026-09-28 — no hooks</title></rect>
  <rect x="300" y="50" width="12" height="12" rx="2.5" fill="#1c1c20"><title>2026-09-29 — no hooks</title></rect>
  <rect x="300" y="65" width="12" height="12" rx="2.5" fill="#1c1c20"><title>2026-09-30 — no hooks</title></rect>
  <rect x="300" y="80" width="12" height="12" rx="2.5" fill="#1c1c20"><title>2026-10-01 — no hooks</title></rect>
  <rect x="300" y="95" width="12" height="12" rx="2.5" fill="#1c1c20"><title>2026-10-02 — no hooks</title></rect>
  <rect x="300" y="110" width="12" height="12" rx="2.5" fill="#1c1c20"><title>2026-10-03 — no hooks</title></rect>
  <rect x="315" y="20" width="12" height="12" rx="2.5" fill="#1c1c20"><title>2026-10-04 — no hooks</title></rect>
  <rect x="315" y="35" width="12" height="12" rx="2.5" fill="#1c1c20"><title>2026-10-05 — no hooks</title></rect>
  <rect x="315" y="50" width="12" height="12" rx="2.5" fill="#1c1c20"><title>2026-10-06 — no hooks</title></rect>
  <rect x="315" y="65" width="12" height="12" rx="2.5" fill="#1c1c20"><title>2026-10-07 — no hooks</title></rect>
  <rect x="315" y="80" width="12" height="12" rx="2.5" fill="#1c1c20"><title>2026-10-08 — no hooks</title></rect>
  <rect x="315" y="95" width="12" height="12" rx="2.5" fill="#1c1c20"><title>2026-10-09 — no hooks</title></rect>
  <rect x="315" y="110" width="12" height="12" rx="2.5" fill="#1c1c20"><title>2026-10-10 — no hooks</title></rect>
  <text x="198" y="139" fill="#71717a" font-size="10">Less</text><rect x="232" y="131" width="10" height="10" rx="2" fill="#1c1c20"/><rect x="243" y="131" width="10" height="10" rx="2" fill="#3f3f46"/><rect x="254" y="131" width="10" height="10" rx="2" fill="#71717a"/><rect x="265" y="131" width="10" height="10" rx="2" fill="#a1a1aa"/><rect x="276" y="131" width="10" height="10" rx="2" fill="#f4f4f5"/><text x="291" y="139" fill="#71717a" font-size="10">More</text>
</svg>
